<svg xmlns="http://www.w3.org/2000/svg" xmlns:xlink="http://www.w3.org/1999/xlink" width="500" zoomAndPan="magnify" viewBox="0 0 375 374.999991" height="500" preserveAspectRatio="xMidYMid meet" version="1.2"><defs><clipPath id="c17336a910"><path d="M 45.285156 145.0625 L 109.785156 145.0625 L 109.785156 209.5625 L 45.285156 209.5625 Z M 45.285156 145.0625 "/></clipPath></defs><g id="f896ba4e29"><g style="fill:#f4c430;fill-opacity:1;"><g transform="translate(113.850722, 187.337932)"><path style="stroke:none" d="M 2.703125 -26.328125 L 8.1875 -26.328125 L 8.1875 0 L 2.703125 0 Z M 2.703125 -26.328125 "/></g></g><g style="fill:#f4c430;fill-opacity:1;"><g transform="translate(126.07506, 187.337932)"><path style="stroke:none" d="M 11.9375 0.4375 C 10.445312 0.4375 9.0625 0.175781 7.78125 -0.34375 C 6.507812 -0.863281 5.410156 -1.570312 4.484375 -2.46875 C 3.554688 -3.375 2.828125 -4.429688 2.296875 -5.640625 C 1.773438 -6.859375 1.515625 -8.164062 1.515625 -9.5625 L 1.515625 -9.625 C 1.515625 -11.019531 1.773438 -12.320312 2.296875 -13.53125 C 2.828125 -14.75 3.5625 -15.816406 4.5 -16.734375 C 5.445312 -17.648438 6.554688 -18.367188 7.828125 -18.890625 C 9.097656 -19.421875 10.492188 -19.6875 12.015625 -19.6875 C 13.503906 -19.6875 14.882812 -19.425781 16.15625 -18.90625 C 17.425781 -18.394531 18.523438 -17.6875 19.453125 -16.78125 C 20.378906 -15.882812 21.109375 -14.828125 21.640625 -13.609375 C 22.171875 -12.398438 22.4375 -11.097656 22.4375 -9.703125 L 22.4375 -9.625 C 22.4375 -8.226562 22.171875 -6.921875 21.640625 -5.703125 C 21.109375 -4.492188 20.375 -3.429688 19.4375 -2.515625 C 18.5 -1.609375 17.390625 -0.890625 16.109375 -0.359375 C 14.835938 0.171875 13.445312 0.4375 11.9375 0.4375 Z M 12.015625 -4.296875 C 12.804688 -4.296875 13.503906 -4.429688 14.109375 -4.703125 C 14.722656 -4.984375 15.25 -5.363281 15.6875 -5.84375 C 16.125 -6.320312 16.453125 -6.878906 16.671875 -7.515625 C 16.898438 -8.148438 17.015625 -8.832031 17.015625 -9.5625 L 17.015625 -9.625 C 17.015625 -10.34375 16.894531 -11.019531 16.65625 -11.65625 C 16.414062 -12.300781 16.066406 -12.867188 15.609375 -13.359375 C 15.160156 -13.847656 14.617188 -14.238281 13.984375 -14.53125 C 13.359375 -14.820312 12.675781 -14.96875 11.9375 -14.96875 C 11.144531 -14.96875 10.441406 -14.828125 9.828125 -14.546875 C 9.210938 -14.273438 8.6875 -13.894531 8.25 -13.40625 C 7.820312 -12.925781 7.492188 -12.367188 7.265625 -11.734375 C 7.035156 -11.097656 6.921875 -10.421875 6.921875 -9.703125 L 6.921875 -9.625 C 6.921875 -8.90625 7.039062 -8.226562 7.28125 -7.59375 C 7.519531 -6.957031 7.867188 -6.390625 8.328125 -5.890625 C 8.785156 -5.398438 9.320312 -5.007812 9.9375 -4.71875 C 10.550781 -4.4375 11.242188 -4.296875 12.015625 -4.296875 Z M 13.8125 -27.84375 L 18.53125 -25.78125 L 13.84375 -21.453125 L 9.8125 -21.453125 Z M 13.8125 -27.84375 "/></g></g><g style="fill:#f4c430;fill-opacity:1;"><g transform="translate(151.352585, 187.337932)"><path style="stroke:none" d="M 0.859375 -19.328125 L 6.421875 -19.328125 L 9.515625 -7.609375 L 13.15625 -19.40625 L 17.890625 -19.40625 L 21.5625 -7.578125 L 24.734375 -19.328125 L 30.1875 -19.328125 L 24.15625 0.140625 L 19.21875 0.140625 L 15.5 -11.71875 L 11.71875 0.140625 L 6.8125 0.140625 Z M 0.859375 -19.328125 "/></g></g><g style="fill:#f4c430;fill-opacity:1;"><g transform="translate(183.73364, 187.337932)"><path style="stroke:none" d="M 8.875 0.359375 C 6.78125 0.359375 5.160156 -0.273438 4.015625 -1.546875 C 2.878906 -2.828125 2.3125 -4.582031 2.3125 -6.8125 L 2.3125 -19.328125 L 7.796875 -19.328125 L 7.796875 -8.546875 C 7.796875 -7.242188 8.082031 -6.257812 8.65625 -5.59375 C 9.226562 -4.9375 10.046875 -4.609375 11.109375 -4.609375 C 12.160156 -4.609375 12.992188 -4.9375 13.609375 -5.59375 C 14.222656 -6.257812 14.53125 -7.242188 14.53125 -8.546875 L 14.53125 -19.328125 L 20.015625 -19.328125 L 20.015625 0 L 14.53125 0 L 14.53125 -2.734375 C 14.21875 -2.328125 13.875 -1.9375 13.5 -1.5625 C 13.132812 -1.195312 12.722656 -0.867188 12.265625 -0.578125 C 11.804688 -0.285156 11.300781 -0.0546875 10.75 0.109375 C 10.195312 0.273438 9.570312 0.359375 8.875 0.359375 Z M 4.578125 -25.78125 L 9.296875 -27.84375 L 13.296875 -21.453125 L 9.265625 -21.453125 Z M 4.578125 -25.78125 "/></g></g><g style="fill:#f4c430;fill-opacity:1;"><g transform="translate(207.532772, 187.337932)"><path style="stroke:none" d=""/></g></g><g style="fill:#f4c430;fill-opacity:1;"><g transform="translate(219.68499, 187.337932)"><path style="stroke:none" d="M 3.03125 -25.25 L 8.578125 -25.25 L 8.578125 -15.25 L 18.828125 -15.25 L 18.828125 -25.25 L 24.375 -25.25 L 24.375 0 L 18.828125 0 L 18.828125 -10.140625 L 8.578125 -10.140625 L 8.578125 0 L 3.03125 0 Z M 3.03125 -25.25 "/></g></g><g style="fill:#f4c430;fill-opacity:1;"><g transform="translate(248.424135, 187.337932)"><path style="stroke:none" d="M 11.9375 0.4375 C 10.445312 0.4375 9.0625 0.175781 7.78125 -0.34375 C 6.507812 -0.863281 5.410156 -1.570312 4.484375 -2.46875 C 3.554688 -3.375 2.828125 -4.429688 2.296875 -5.640625 C 1.773438 -6.859375 1.515625 -8.164062 1.515625 -9.5625 L 1.515625 -9.625 C 1.515625 -11.019531 1.773438 -12.320312 2.296875 -13.53125 C 2.828125 -14.75 3.5625 -15.816406 4.5 -16.734375 C 5.445312 -17.648438 6.554688 -18.367188 7.828125 -18.890625 C 9.097656 -19.421875 10.492188 -19.6875 12.015625 -19.6875 C 13.503906 -19.6875 14.882812 -19.425781 16.15625 -18.90625 C 17.425781 -18.394531 18.523438 -17.6875 19.453125 -16.78125 C 20.378906 -15.882812 21.109375 -14.828125 21.640625 -13.609375 C 22.171875 -12.398438 22.4375 -11.097656 22.4375 -9.703125 L 22.4375 -9.625 C 22.4375 -8.226562 22.171875 -6.921875 21.640625 -5.703125 C 21.109375 -4.492188 20.375 -3.429688 19.4375 -2.515625 C 18.5 -1.609375 17.390625 -0.890625 16.109375 -0.359375 C 14.835938 0.171875 13.445312 0.4375 11.9375 0.4375 Z M 12.015625 -4.296875 C 12.804688 -4.296875 13.503906 -4.429688 14.109375 -4.703125 C 14.722656 -4.984375 15.25 -5.363281 15.6875 -5.84375 C 16.125 -6.320312 16.453125 -6.878906 16.671875 -7.515625 C 16.898438 -8.148438 17.015625 -8.832031 17.015625 -9.5625 L 17.015625 -9.625 C 17.015625 -10.34375 16.894531 -11.019531 16.65625 -11.65625 C 16.414062 -12.300781 16.066406 -12.867188 15.609375 -13.359375 C 15.160156 -13.847656 14.617188 -14.238281 13.984375 -14.53125 C 13.359375 -14.820312 12.675781 -14.96875 11.9375 -14.96875 C 11.144531 -14.96875 10.441406 -14.828125 9.828125 -14.546875 C 9.210938 -14.273438 8.6875 -13.894531 8.25 -13.40625 C 7.820312 -12.925781 7.492188 -12.367188 7.265625 -11.734375 C 7.035156 -11.097656 6.921875 -10.421875 6.921875 -9.703125 L 6.921875 -9.625 C 6.921875 -8.90625 7.039062 -8.226562 7.28125 -7.59375 C 7.519531 -6.957031 7.867188 -6.390625 8.328125 -5.890625 C 8.785156 -5.398438 9.320312 -5.007812 9.9375 -4.71875 C 10.550781 -4.4375 11.242188 -4.296875 12.015625 -4.296875 Z M 12.015625 -4.296875 "/></g></g><g style="fill:#f4c430;fill-opacity:1;"><g transform="translate(273.70166, 187.337932)"><path style="stroke:none" d="M 2.453125 -19.328125 L 7.9375 -19.328125 L 7.9375 -16.546875 C 8.601562 -17.460938 9.410156 -18.210938 10.359375 -18.796875 C 11.316406 -19.390625 12.515625 -19.6875 13.953125 -19.6875 C 15.085938 -19.6875 16.179688 -19.46875 17.234375 -19.03125 C 18.296875 -18.601562 19.234375 -17.960938 20.046875 -17.109375 C 20.867188 -16.253906 21.523438 -15.207031 22.015625 -13.96875 C 22.503906 -12.726562 22.75 -11.304688 22.75 -9.703125 L 22.75 -9.625 C 22.75 -8.019531 22.503906 -6.597656 22.015625 -5.359375 C 21.523438 -4.117188 20.875 -3.070312 20.0625 -2.21875 C 19.257812 -1.363281 18.328125 -0.71875 17.265625 -0.28125 C 16.210938 0.144531 15.109375 0.359375 13.953125 0.359375 C 12.484375 0.359375 11.273438 0.0703125 10.328125 -0.5 C 9.378906 -1.082031 8.582031 -1.757812 7.9375 -2.53125 L 7.9375 5.765625 L 2.453125 5.765625 Z M 12.546875 -4.296875 C 13.191406 -4.296875 13.796875 -4.421875 14.359375 -4.671875 C 14.929688 -4.921875 15.429688 -5.28125 15.859375 -5.75 C 16.296875 -6.21875 16.640625 -6.773438 16.890625 -7.421875 C 17.148438 -8.078125 17.28125 -8.8125 17.28125 -9.625 L 17.28125 -9.703125 C 17.28125 -10.492188 17.148438 -11.21875 16.890625 -11.875 C 16.640625 -12.539062 16.296875 -13.109375 15.859375 -13.578125 C 15.429688 -14.046875 14.929688 -14.40625 14.359375 -14.65625 C 13.796875 -14.90625 13.191406 -15.03125 12.546875 -15.03125 C 11.898438 -15.03125 11.289062 -14.90625 10.71875 -14.65625 C 10.15625 -14.40625 9.664062 -14.046875 9.25 -13.578125 C 8.832031 -13.109375 8.492188 -12.539062 8.234375 -11.875 C 7.984375 -11.21875 7.859375 -10.492188 7.859375 -9.703125 L 7.859375 -9.625 C 7.859375 -8.832031 7.984375 -8.101562 8.234375 -7.4375 C 8.492188 -6.78125 8.832031 -6.21875 9.25 -5.75 C 9.664062 -5.28125 10.15625 -4.921875 10.71875 -4.671875 C 11.289062 -4.421875 11.898438 -4.296875 12.546875 -4.296875 Z M 12.546875 -4.296875 "/></g></g><g style="fill:#f4c430;fill-opacity:1;"><g transform="translate(299.375838, 187.337932)"><path style="stroke:none" d="M 11.609375 0.4375 C 10.171875 0.4375 8.832031 0.195312 7.59375 -0.28125 C 6.351562 -0.769531 5.28125 -1.457031 4.375 -2.34375 C 3.476562 -3.226562 2.773438 -4.28125 2.265625 -5.5 C 1.765625 -6.71875 1.515625 -8.070312 1.515625 -9.5625 L 1.515625 -9.625 C 1.515625 -11 1.75 -12.296875 2.21875 -13.515625 C 2.6875 -14.742188 3.34375 -15.816406 4.1875 -16.734375 C 5.03125 -17.648438 6.03125 -18.367188 7.1875 -18.890625 C 8.351562 -19.421875 9.648438 -19.6875 11.078125 -19.6875 C 12.679688 -19.6875 14.070312 -19.394531 15.25 -18.8125 C 16.425781 -18.238281 17.40625 -17.460938 18.1875 -16.484375 C 18.96875 -15.515625 19.546875 -14.398438 19.921875 -13.140625 C 20.296875 -11.878906 20.484375 -10.566406 20.484375 -9.203125 C 20.484375 -8.984375 20.476562 -8.753906 20.46875 -8.515625 C 20.457031 -8.273438 20.4375 -8.019531 20.40625 -7.75 L 6.953125 -7.75 C 7.222656 -6.5 7.769531 -5.554688 8.59375 -4.921875 C 9.425781 -4.285156 10.457031 -3.96875 11.6875 -3.96875 C 12.59375 -3.96875 13.40625 -4.125 14.125 -4.4375 C 14.851562 -4.75 15.601562 -5.253906 16.375 -5.953125 L 19.515625 -3.171875 C 18.597656 -2.046875 17.488281 -1.160156 16.1875 -0.515625 C 14.894531 0.117188 13.367188 0.4375 11.609375 0.4375 Z M 15.140625 -11.171875 C 14.972656 -12.398438 14.539062 -13.394531 13.84375 -14.15625 C 13.144531 -14.914062 12.222656 -15.296875 11.078125 -15.296875 C 9.921875 -15.296875 8.988281 -14.921875 8.28125 -14.171875 C 7.570312 -13.421875 7.109375 -12.421875 6.890625 -11.171875 Z M 15.140625 -11.171875 "/></g></g><g style="fill:#f4c430;fill-opacity:1;"><g transform="translate(322.819458, 187.337932)"><path style="stroke:none" d=""/></g></g><g clip-rule="nonzero" clip-path="url(#c17336a910)"><path style=" stroke:none;fill-rule:nonzero;fill:#f4c430;fill-opacity:1;" d="M 104.972656 161.152344 C 102.214844 156.355469 95.632812 155.460938 91.644531 159.328125 C 90.03125 160.898438 88.925781 162 88.757812 162.296875 C 88.078125 163.527344 88.164062 167.605469 87.355469 168.792969 C 86.632812 169.855469 86.039062 171.679688 85.953125 173.632812 C 85.953125 173.972656 85.574219 174.269531 85.234375 174.144531 C 82.644531 173.207031 85.148438 168.878906 84.554688 168.199219 C 83.917969 167.476562 82.769531 168.707031 81.070312 170.28125 C 79.375 171.851562 75.636719 177.113281 74.578125 175.925781 C 73.261719 174.480469 79.757812 169.769531 78.820312 168.707031 C 78.101562 167.902344 72.792969 175.628906 71.308594 174.015625 C 69.863281 172.402344 77.25 167.433594 76.953125 166.839844 C 76.742188 166.457031 75 167.519531 73.261719 169.003906 C 71.519531 170.492188 70.160156 171.894531 69.3125 170.789062 C 68.464844 169.683594 71.136719 167.902344 72.285156 167.011719 C 73.429688 166.117188 76.105469 164.886719 75.976562 164.164062 C 75.894531 163.445312 74.066406 164.421875 73.007812 165.183594 C 71.988281 165.949219 70.289062 167.859375 69.609375 166.796875 C 68.929688 165.738281 72.667969 163.445312 75.042969 161.578125 C 77.464844 159.707031 81.835938 157.5 83.152344 157.289062 C 83.660156 157.203125 86.675781 154.230469 90.285156 150.539062 C 91.132812 149.6875 90.835938 148.246094 89.734375 147.777344 C 85.53125 145.996094 80.859375 145.105469 75.933594 145.316406 C 59.546875 145.953125 46.21875 159.328125 45.582031 175.796875 C 45.285156 183.058594 47.449219 189.808594 51.269531 195.285156 C 54.496094 199.871094 61.203125 200.292969 64.8125 195.964844 C 64.941406 195.835938 64.980469 195.710938 65.023438 195.667969 C 65.957031 194.011719 65.832031 188.492188 66.890625 186.921875 C 67.867188 185.476562 68.675781 183.015625 68.761719 180.382812 C 68.761719 179.917969 69.269531 179.578125 69.695312 179.746094 C 73.175781 181.019531 69.820312 186.878906 70.585938 187.769531 C 71.433594 188.703125 73.007812 187.050781 75.296875 184.96875 C 77.589844 182.847656 82.644531 175.757812 84.085938 177.328125 C 85.871094 179.238281 77.082031 185.605469 78.355469 187.089844 C 79.332031 188.195312 86.507812 177.75 88.460938 179.917969 C 90.414062 182.082031 80.394531 188.789062 80.859375 189.636719 C 81.15625 190.191406 83.535156 188.703125 85.871094 186.710938 C 88.203125 184.714844 90.03125 182.847656 91.175781 184.332031 C 92.324219 185.816406 88.714844 188.238281 87.1875 189.46875 C 85.65625 190.65625 82.046875 192.355469 82.175781 193.289062 C 82.304688 194.265625 84.765625 192.90625 86.167969 191.886719 C 87.566406 190.871094 89.816406 188.28125 90.75 189.722656 C 91.6875 191.167969 86.632812 194.265625 83.40625 196.769531 C 80.179688 199.277344 74.238281 202.246094 72.496094 202.542969 C 72.15625 202.585938 70.96875 203.605469 69.269531 205.261719 C 68.292969 206.195312 68.761719 207.851562 70.078125 208.191406 C 73.089844 208.914062 76.316406 209.167969 79.585938 208.957031 C 95.71875 207.808594 108.539062 194.519531 109.132812 178.347656 C 109.433594 172.019531 107.859375 166.160156 104.972656 161.152344 Z M 104.972656 161.152344 "/></g><g style="fill:#f4c430;fill-opacity:1;"><g transform="translate(186.234469, 224.096352)"><path style="stroke:none" d="M 2.671875 -16.859375 L 3.921875 -16.859375 L 3.921875 0 L 2.671875 0 Z M 2.671875 -16.859375 "/></g></g><g style="fill:#f4c430;fill-opacity:1;"><g transform="translate(196.513895, 224.096352)"><path style="stroke:none" d="M 2.234375 -12.28125 L 3.421875 -12.28125 L 3.421875 -10 C 3.835938 -10.71875 4.394531 -11.320312 5.09375 -11.8125 C 5.800781 -12.3125 6.71875 -12.5625 7.84375 -12.5625 C 8.613281 -12.5625 9.300781 -12.4375 9.90625 -12.1875 C 10.519531 -11.945312 11.039062 -11.597656 11.46875 -11.140625 C 11.894531 -10.691406 12.21875 -10.160156 12.4375 -9.546875 C 12.65625 -8.929688 12.765625 -8.253906 12.765625 -7.515625 L 12.765625 0 L 11.578125 0 L 11.578125 -7.296875 C 11.578125 -8.566406 11.238281 -9.582031 10.5625 -10.34375 C 9.894531 -11.101562 8.9375 -11.484375 7.6875 -11.484375 C 7.070312 -11.484375 6.503906 -11.375 5.984375 -11.15625 C 5.472656 -10.9375 5.023438 -10.632812 4.640625 -10.25 C 4.253906 -9.863281 3.953125 -9.398438 3.734375 -8.859375 C 3.523438 -8.328125 3.421875 -7.742188 3.421875 -7.109375 L 3.421875 0 L 2.234375 0 Z M 2.234375 -12.28125 "/></g></g><g style="fill:#f4c430;fill-opacity:1;"><g transform="translate(214.953164, 224.096352)"><path style="stroke:none" d="M 2.265625 -17.09375 L 3.734375 -17.09375 L 3.734375 -15.484375 L 2.265625 -15.484375 Z M 2.40625 -12.28125 L 3.59375 -12.28125 L 3.59375 0 L 2.40625 0 Z M 2.40625 -12.28125 "/></g></g><g style="fill:#f4c430;fill-opacity:1;"><g transform="translate(224.630837, 224.096352)"><path style="stroke:none" d="M 6.328125 0.21875 C 5.847656 0.21875 5.398438 0.148438 4.984375 0.015625 C 4.566406 -0.109375 4.203125 -0.3125 3.890625 -0.59375 C 3.578125 -0.875 3.332031 -1.222656 3.15625 -1.640625 C 2.976562 -2.066406 2.890625 -2.570312 2.890625 -3.15625 L 2.890625 -11.203125 L 1.109375 -11.203125 L 1.109375 -12.28125 L 2.890625 -12.28125 L 2.890625 -16.203125 L 4.0625 -16.203125 L 4.0625 -12.28125 L 8.375 -12.28125 L 8.375 -11.203125 L 4.0625 -11.203125 L 4.0625 -3.28125 C 4.0625 -2.394531 4.289062 -1.773438 4.75 -1.421875 C 5.207031 -1.066406 5.800781 -0.890625 6.53125 -0.890625 C 6.832031 -0.890625 7.117188 -0.921875 7.390625 -0.984375 C 7.660156 -1.046875 7.972656 -1.160156 8.328125 -1.328125 L 8.328125 -0.21875 C 8.003906 -0.0703125 7.6875 0.0351562 7.375 0.109375 C 7.0625 0.179688 6.710938 0.21875 6.328125 0.21875 Z M 6.328125 0.21875 "/></g></g><g style="fill:#f4c430;fill-opacity:1;"><g transform="translate(237.943129, 224.096352)"><path style="stroke:none" d="M 2.265625 -17.09375 L 3.734375 -17.09375 L 3.734375 -15.484375 L 2.265625 -15.484375 Z M 2.40625 -12.28125 L 3.59375 -12.28125 L 3.59375 0 L 2.40625 0 Z M 2.40625 -12.28125 "/></g></g><g style="fill:#f4c430;fill-opacity:1;"><g transform="translate(247.620802, 224.096352)"><path style="stroke:none" d="M 5.96875 0.28125 C 5.394531 0.28125 4.828125 0.203125 4.265625 0.046875 C 3.703125 -0.109375 3.195312 -0.347656 2.75 -0.671875 C 2.300781 -0.992188 1.9375 -1.394531 1.65625 -1.875 C 1.375 -2.351562 1.234375 -2.914062 1.234375 -3.5625 L 1.234375 -3.609375 C 1.234375 -4.253906 1.363281 -4.820312 1.625 -5.3125 C 1.882812 -5.8125 2.25 -6.226562 2.71875 -6.5625 C 3.1875 -6.90625 3.75 -7.164062 4.40625 -7.34375 C 5.0625 -7.519531 5.789062 -7.609375 6.59375 -7.609375 C 7.457031 -7.609375 8.203125 -7.554688 8.828125 -7.453125 C 9.460938 -7.359375 10.078125 -7.234375 10.671875 -7.078125 L 10.671875 -7.609375 C 10.671875 -8.859375 10.3125 -9.796875 9.59375 -10.421875 C 8.882812 -11.046875 7.894531 -11.359375 6.625 -11.359375 C 5.863281 -11.359375 5.171875 -11.265625 4.546875 -11.078125 C 3.921875 -10.898438 3.328125 -10.664062 2.765625 -10.375 L 2.328125 -11.40625 C 3.003906 -11.726562 3.6875 -11.984375 4.375 -12.171875 C 5.070312 -12.367188 5.84375 -12.46875 6.6875 -12.46875 C 8.375 -12.46875 9.664062 -12.019531 10.5625 -11.125 C 11.40625 -10.289062 11.828125 -9.132812 11.828125 -7.65625 L 11.828125 0 L 10.671875 0 L 10.671875 -2.046875 C 10.460938 -1.753906 10.207031 -1.46875 9.90625 -1.1875 C 9.613281 -0.90625 9.273438 -0.65625 8.890625 -0.4375 C 8.503906 -0.226562 8.066406 -0.0546875 7.578125 0.078125 C 7.085938 0.210938 6.550781 0.28125 5.96875 0.28125 Z M 6.046875 -0.8125 C 6.671875 -0.8125 7.265625 -0.90625 7.828125 -1.09375 C 8.390625 -1.28125 8.878906 -1.535156 9.296875 -1.859375 C 9.722656 -2.191406 10.0625 -2.585938 10.3125 -3.046875 C 10.5625 -3.515625 10.6875 -4.03125 10.6875 -4.59375 L 10.6875 -6 C 10.175781 -6.125 9.570312 -6.242188 8.875 -6.359375 C 8.1875 -6.484375 7.40625 -6.546875 6.53125 -6.546875 C 5.226562 -6.546875 4.226562 -6.285156 3.53125 -5.765625 C 2.832031 -5.242188 2.484375 -4.550781 2.484375 -3.6875 L 2.484375 -3.640625 C 2.484375 -3.191406 2.578125 -2.789062 2.765625 -2.4375 C 2.960938 -2.09375 3.222656 -1.800781 3.546875 -1.5625 C 3.878906 -1.320312 4.257812 -1.132812 4.6875 -1 C 5.125 -0.875 5.578125 -0.8125 6.046875 -0.8125 Z M 6.046875 -0.8125 "/></g></g><g style="fill:#f4c430;fill-opacity:1;"><g transform="translate(265.000943, 224.096352)"><path style="stroke:none" d="M 6.328125 0.21875 C 5.847656 0.21875 5.398438 0.148438 4.984375 0.015625 C 4.566406 -0.109375 4.203125 -0.3125 3.890625 -0.59375 C 3.578125 -0.875 3.332031 -1.222656 3.15625 -1.640625 C 2.976562 -2.066406 2.890625 -2.570312 2.890625 -3.15625 L 2.890625 -11.203125 L 1.109375 -11.203125 L 1.109375 -12.28125 L 2.890625 -12.28125 L 2.890625 -16.203125 L 4.0625 -16.203125 L 4.0625 -12.28125 L 8.375 -12.28125 L 8.375 -11.203125 L 4.0625 -11.203125 L 4.0625 -3.28125 C 4.0625 -2.394531 4.289062 -1.773438 4.75 -1.421875 C 5.207031 -1.066406 5.800781 -0.890625 6.53125 -0.890625 C 6.832031 -0.890625 7.117188 -0.921875 7.390625 -0.984375 C 7.660156 -1.046875 7.972656 -1.160156 8.328125 -1.328125 L 8.328125 -0.21875 C 8.003906 -0.0703125 7.6875 0.0351562 7.375 0.109375 C 7.0625 0.179688 6.710938 0.21875 6.328125 0.21875 Z M 6.328125 0.21875 "/></g></g><g style="fill:#f4c430;fill-opacity:1;"><g transform="translate(278.313236, 224.096352)"><path style="stroke:none" d="M 2.265625 -17.09375 L 3.734375 -17.09375 L 3.734375 -15.484375 L 2.265625 -15.484375 Z M 2.40625 -12.28125 L 3.59375 -12.28125 L 3.59375 0 L 2.40625 0 Z M 2.40625 -12.28125 "/></g></g><g style="fill:#f4c430;fill-opacity:1;"><g transform="translate(287.990909, 224.096352)"><path style="stroke:none" d="M 0.984375 -12.28125 L 2.359375 -12.28125 L 7 -1.328125 L 11.703125 -12.28125 L 13.03125 -12.28125 L 7.515625 0.09375 L 6.5 0.09375 Z M 0.984375 -12.28125 "/></g></g><g style="fill:#f4c430;fill-opacity:1;"><g transform="translate(304.961752, 224.096352)"><path style="stroke:none" d="M 7.421875 0.28125 C 6.617188 0.28125 5.847656 0.128906 5.109375 -0.171875 C 4.378906 -0.472656 3.738281 -0.90625 3.1875 -1.46875 C 2.632812 -2.03125 2.195312 -2.703125 1.875 -3.484375 C 1.550781 -4.273438 1.390625 -5.148438 1.390625 -6.109375 L 1.390625 -6.15625 C 1.390625 -7.039062 1.535156 -7.875 1.828125 -8.65625 C 2.128906 -9.4375 2.539062 -10.113281 3.0625 -10.6875 C 3.59375 -11.269531 4.207031 -11.726562 4.90625 -12.0625 C 5.613281 -12.394531 6.382812 -12.5625 7.21875 -12.5625 C 8.09375 -12.5625 8.875 -12.394531 9.5625 -12.0625 C 10.25 -11.738281 10.835938 -11.285156 11.328125 -10.703125 C 11.816406 -10.128906 12.191406 -9.453125 12.453125 -8.671875 C 12.722656 -7.898438 12.859375 -7.054688 12.859375 -6.140625 C 12.859375 -6.023438 12.859375 -5.9375 12.859375 -5.875 C 12.859375 -5.820312 12.847656 -5.75 12.828125 -5.65625 L 2.65625 -5.65625 C 2.695312 -4.882812 2.863281 -4.203125 3.15625 -3.609375 C 3.445312 -3.015625 3.804688 -2.507812 4.234375 -2.09375 C 4.671875 -1.675781 5.164062 -1.359375 5.71875 -1.140625 C 6.269531 -0.921875 6.851562 -0.8125 7.46875 -0.8125 C 8.425781 -0.8125 9.238281 -0.992188 9.90625 -1.359375 C 10.570312 -1.734375 11.160156 -2.195312 11.671875 -2.75 L 12.5 -2.015625 C 11.875 -1.347656 11.160156 -0.796875 10.359375 -0.359375 C 9.566406 0.0664062 8.585938 0.28125 7.421875 0.28125 Z M 11.578125 -6.71875 C 11.535156 -7.34375 11.410156 -7.9375 11.203125 -8.5 C 11.003906 -9.070312 10.722656 -9.578125 10.359375 -10.015625 C 10.003906 -10.460938 9.5625 -10.816406 9.03125 -11.078125 C 8.5 -11.347656 7.878906 -11.484375 7.171875 -11.484375 C 6.566406 -11.484375 6 -11.363281 5.46875 -11.125 C 4.9375 -10.882812 4.472656 -10.550781 4.078125 -10.125 C 3.679688 -9.695312 3.351562 -9.191406 3.09375 -8.609375 C 2.84375 -8.023438 2.695312 -7.394531 2.65625 -6.71875 Z M 11.578125 -6.71875 "/></g></g></g></svg>