<svg xmlns="http://www.w3.org/2000/svg" xmlns:xlink="http://www.w3.org/1999/xlink" width="500" zoomAndPan="magnify" viewBox="0 0 375 149.999998" height="200" preserveAspectRatio="xMidYMid meet" version="1.2"><defs><clipPath id="571c96b4fb"><path d="M 15 23.523438 L 93 23.523438 L 93 101.757812 L 15 101.757812 Z M 15 23.523438 "/></clipPath></defs><g id="2dbb0a48f7"><g style="fill:#f4c430;fill-opacity:1;"><g transform="translate(98.168011, 74.803419)"><path style="stroke:none" d="M 3.28125 -31.9375 L 9.9375 -31.9375 L 9.9375 0 L 3.28125 0 Z M 3.28125 -31.9375 "/></g></g><g style="fill:#f4c430;fill-opacity:1;"><g transform="translate(112.99537, 74.803419)"><path style="stroke:none" d="M 14.484375 0.53125 C 12.671875 0.53125 10.988281 0.21875 9.4375 -0.40625 C 7.894531 -1.039062 6.5625 -1.90625 5.4375 -3 C 4.320312 -4.09375 3.441406 -5.375 2.796875 -6.84375 C 2.160156 -8.320312 1.84375 -9.90625 1.84375 -11.59375 L 1.84375 -11.6875 C 1.84375 -13.375 2.160156 -14.953125 2.796875 -16.421875 C 3.441406 -17.898438 4.332031 -19.191406 5.46875 -20.296875 C 6.601562 -21.410156 7.941406 -22.285156 9.484375 -22.921875 C 11.035156 -23.566406 12.726562 -23.890625 14.5625 -23.890625 C 16.375 -23.890625 18.050781 -23.570312 19.59375 -22.9375 C 21.144531 -22.3125 22.476562 -21.453125 23.59375 -20.359375 C 24.71875 -19.265625 25.601562 -17.984375 26.25 -16.515625 C 26.894531 -15.046875 27.21875 -13.460938 27.21875 -11.765625 L 27.21875 -11.6875 C 27.21875 -9.988281 26.894531 -8.398438 26.25 -6.921875 C 25.601562 -5.453125 24.710938 -4.164062 23.578125 -3.0625 C 22.441406 -1.957031 21.097656 -1.082031 19.546875 -0.4375 C 18.003906 0.207031 16.316406 0.53125 14.484375 0.53125 Z M 14.5625 -5.203125 C 15.53125 -5.203125 16.382812 -5.367188 17.125 -5.703125 C 17.875 -6.046875 18.507812 -6.507812 19.03125 -7.09375 C 19.550781 -7.675781 19.953125 -8.351562 20.234375 -9.125 C 20.515625 -9.894531 20.65625 -10.71875 20.65625 -11.59375 L 20.65625 -11.6875 C 20.65625 -12.5625 20.507812 -13.382812 20.21875 -14.15625 C 19.925781 -14.925781 19.5 -15.609375 18.9375 -16.203125 C 18.382812 -16.804688 17.726562 -17.28125 16.96875 -17.625 C 16.21875 -17.976562 15.390625 -18.15625 14.484375 -18.15625 C 13.515625 -18.15625 12.660156 -17.988281 11.921875 -17.65625 C 11.179688 -17.320312 10.546875 -16.863281 10.015625 -16.28125 C 9.492188 -15.695312 9.09375 -15.015625 8.8125 -14.234375 C 8.539062 -13.460938 8.40625 -12.640625 8.40625 -11.765625 L 8.40625 -11.6875 C 8.40625 -10.8125 8.550781 -9.984375 8.84375 -9.203125 C 9.132812 -8.429688 9.554688 -7.742188 10.109375 -7.140625 C 10.660156 -6.546875 11.304688 -6.070312 12.046875 -5.71875 C 12.796875 -5.375 13.632812 -5.203125 14.5625 -5.203125 Z M 16.75 -33.78125 L 22.484375 -31.28125 L 16.796875 -26.03125 L 11.890625 -26.03125 Z M 16.75 -33.78125 "/></g></g><g style="fill:#f4c430;fill-opacity:1;"><g transform="translate(143.655432, 74.803419)"><path style="stroke:none" d="M 1.046875 -23.453125 L 7.78125 -23.453125 L 11.546875 -9.234375 L 15.96875 -23.53125 L 21.703125 -23.53125 L 26.15625 -9.1875 L 30.015625 -23.453125 L 36.625 -23.453125 L 29.3125 0.171875 L 23.3125 0.171875 L 18.8125 -14.21875 L 14.21875 0.171875 L 8.265625 0.171875 Z M 1.046875 -23.453125 "/></g></g><g style="fill:#f4c430;fill-opacity:1;"><g transform="translate(182.931633, 74.803419)"><path style="stroke:none" d="M 10.765625 0.4375 C 8.222656 0.4375 6.257812 -0.332031 4.875 -1.875 C 3.488281 -3.425781 2.796875 -5.554688 2.796875 -8.265625 L 2.796875 -23.453125 L 9.453125 -23.453125 L 9.453125 -10.375 C 9.453125 -8.789062 9.800781 -7.597656 10.5 -6.796875 C 11.195312 -5.992188 12.1875 -5.59375 13.46875 -5.59375 C 14.757812 -5.59375 15.773438 -5.992188 16.515625 -6.796875 C 17.253906 -7.597656 17.625 -8.789062 17.625 -10.375 L 17.625 -23.453125 L 24.28125 -23.453125 L 24.28125 0 L 17.625 0 L 17.625 -3.328125 C 17.25 -2.828125 16.832031 -2.347656 16.375 -1.890625 C 15.925781 -1.441406 15.425781 -1.039062 14.875 -0.6875 C 14.320312 -0.34375 13.707031 -0.0703125 13.03125 0.125 C 12.363281 0.332031 11.609375 0.4375 10.765625 0.4375 Z M 5.5625 -31.28125 L 11.296875 -33.78125 L 16.15625 -26.03125 L 11.25 -26.03125 Z M 5.5625 -31.28125 "/></g></g><g style="fill:#f4c430;fill-opacity:1;"><g transform="translate(211.798496, 74.803419)"><path style="stroke:none" d=""/></g></g><g style="fill:#f4c430;fill-opacity:1;"><g transform="translate(226.538378, 74.803419)"><path style="stroke:none" d="M 3.671875 -30.625 L 10.40625 -30.625 L 10.40625 -18.5 L 22.84375 -18.5 L 22.84375 -30.625 L 29.578125 -30.625 L 29.578125 0 L 22.84375 0 L 22.84375 -12.296875 L 10.40625 -12.296875 L 10.40625 0 L 3.671875 0 Z M 3.671875 -30.625 "/></g></g><g style="fill:#f4c430;fill-opacity:1;"><g transform="translate(261.397169, 74.803419)"><path style="stroke:none" d="M 14.484375 0.53125 C 12.671875 0.53125 10.988281 0.21875 9.4375 -0.40625 C 7.894531 -1.039062 6.5625 -1.90625 5.4375 -3 C 4.320312 -4.09375 3.441406 -5.375 2.796875 -6.84375 C 2.160156 -8.320312 1.84375 -9.90625 1.84375 -11.59375 L 1.84375 -11.6875 C 1.84375 -13.375 2.160156 -14.953125 2.796875 -16.421875 C 3.441406 -17.898438 4.332031 -19.191406 5.46875 -20.296875 C 6.601562 -21.410156 7.941406 -22.285156 9.484375 -22.921875 C 11.035156 -23.566406 12.726562 -23.890625 14.5625 -23.890625 C 16.375 -23.890625 18.050781 -23.570312 19.59375 -22.9375 C 21.144531 -22.3125 22.476562 -21.453125 23.59375 -20.359375 C 24.71875 -19.265625 25.601562 -17.984375 26.25 -16.515625 C 26.894531 -15.046875 27.21875 -13.460938 27.21875 -11.765625 L 27.21875 -11.6875 C 27.21875 -9.988281 26.894531 -8.398438 26.25 -6.921875 C 25.601562 -5.453125 24.710938 -4.164062 23.578125 -3.0625 C 22.441406 -1.957031 21.097656 -1.082031 19.546875 -0.4375 C 18.003906 0.207031 16.316406 0.53125 14.484375 0.53125 Z M 14.5625 -5.203125 C 15.53125 -5.203125 16.382812 -5.367188 17.125 -5.703125 C 17.875 -6.046875 18.507812 -6.507812 19.03125 -7.09375 C 19.550781 -7.675781 19.953125 -8.351562 20.234375 -9.125 C 20.515625 -9.894531 20.65625 -10.71875 20.65625 -11.59375 L 20.65625 -11.6875 C 20.65625 -12.5625 20.507812 -13.382812 20.21875 -14.15625 C 19.925781 -14.925781 19.5 -15.609375 18.9375 -16.203125 C 18.382812 -16.804688 17.726562 -17.28125 16.96875 -17.625 C 16.21875 -17.976562 15.390625 -18.15625 14.484375 -18.15625 C 13.515625 -18.15625 12.660156 -17.988281 11.921875 -17.65625 C 11.179688 -17.320312 10.546875 -16.863281 10.015625 -16.28125 C 9.492188 -15.695312 9.09375 -15.015625 8.8125 -14.234375 C 8.539062 -13.460938 8.40625 -12.640625 8.40625 -11.765625 L 8.40625 -11.6875 C 8.40625 -10.8125 8.550781 -9.984375 8.84375 -9.203125 C 9.132812 -8.429688 9.554688 -7.742188 10.109375 -7.140625 C 10.660156 -6.546875 11.304688 -6.070312 12.046875 -5.71875 C 12.796875 -5.375 13.632812 -5.203125 14.5625 -5.203125 Z M 14.5625 -5.203125 "/></g></g><g style="fill:#f4c430;fill-opacity:1;"><g transform="translate(292.057231, 74.803419)"><path style="stroke:none" d="M 2.96875 -23.453125 L 9.625 -23.453125 L 9.625 -20.078125 C 10.4375 -21.191406 11.421875 -22.101562 12.578125 -22.8125 C 13.734375 -23.53125 15.1875 -23.890625 16.9375 -23.890625 C 18.300781 -23.890625 19.625 -23.625 20.90625 -23.09375 C 22.195312 -22.570312 23.335938 -21.789062 24.328125 -20.75 C 25.316406 -19.71875 26.109375 -18.453125 26.703125 -16.953125 C 27.304688 -15.453125 27.609375 -13.722656 27.609375 -11.765625 L 27.609375 -11.6875 C 27.609375 -9.726562 27.304688 -8 26.703125 -6.5 C 26.109375 -5 25.320312 -3.726562 24.34375 -2.6875 C 23.363281 -1.65625 22.234375 -0.875 20.953125 -0.34375 C 19.671875 0.175781 18.332031 0.4375 16.9375 0.4375 C 15.15625 0.4375 13.6875 0.0859375 12.53125 -0.609375 C 11.382812 -1.304688 10.414062 -2.125 9.625 -3.0625 L 9.625 7 L 2.96875 7 Z M 15.21875 -5.203125 C 16.007812 -5.203125 16.75 -5.351562 17.4375 -5.65625 C 18.125 -5.96875 18.726562 -6.40625 19.25 -6.96875 C 19.769531 -7.539062 20.179688 -8.21875 20.484375 -9 C 20.796875 -9.789062 20.953125 -10.6875 20.953125 -11.6875 L 20.953125 -11.765625 C 20.953125 -12.734375 20.796875 -13.617188 20.484375 -14.421875 C 20.179688 -15.222656 19.769531 -15.90625 19.25 -16.46875 C 18.726562 -17.039062 18.125 -17.476562 17.4375 -17.78125 C 16.75 -18.09375 16.007812 -18.25 15.21875 -18.25 C 14.4375 -18.25 13.703125 -18.09375 13.015625 -17.78125 C 12.328125 -17.476562 11.726562 -17.039062 11.21875 -16.46875 C 10.707031 -15.90625 10.296875 -15.222656 9.984375 -14.421875 C 9.679688 -13.617188 9.53125 -12.734375 9.53125 -11.765625 L 9.53125 -11.6875 C 9.53125 -10.71875 9.679688 -9.832031 9.984375 -9.03125 C 10.296875 -8.226562 10.707031 -7.539062 11.21875 -6.96875 C 11.726562 -6.40625 12.328125 -5.96875 13.015625 -5.65625 C 13.703125 -5.351562 14.4375 -5.203125 15.21875 -5.203125 Z M 15.21875 -5.203125 "/></g></g><g style="fill:#f4c430;fill-opacity:1;"><g transform="translate(323.198407, 74.803419)"><path style="stroke:none" d="M 14.09375 0.53125 C 12.34375 0.53125 10.710938 0.238281 9.203125 -0.34375 C 7.703125 -0.925781 6.40625 -1.757812 5.3125 -2.84375 C 4.21875 -3.925781 3.363281 -5.203125 2.75 -6.671875 C 2.144531 -8.140625 1.84375 -9.78125 1.84375 -11.59375 L 1.84375 -11.6875 C 1.84375 -13.34375 2.125 -14.914062 2.6875 -16.40625 C 3.257812 -17.894531 4.054688 -19.191406 5.078125 -20.296875 C 6.097656 -21.410156 7.3125 -22.285156 8.71875 -22.921875 C 10.132812 -23.566406 11.707031 -23.890625 13.4375 -23.890625 C 15.382812 -23.890625 17.070312 -23.535156 18.5 -22.828125 C 19.9375 -22.128906 21.128906 -21.191406 22.078125 -20.015625 C 23.023438 -18.835938 23.722656 -17.484375 24.171875 -15.953125 C 24.617188 -14.421875 24.84375 -12.820312 24.84375 -11.15625 C 24.84375 -10.894531 24.835938 -10.617188 24.828125 -10.328125 C 24.816406 -10.035156 24.796875 -9.726562 24.765625 -9.40625 L 8.4375 -9.40625 C 8.757812 -7.882812 9.421875 -6.738281 10.421875 -5.96875 C 11.429688 -5.195312 12.679688 -4.8125 14.171875 -4.8125 C 15.285156 -4.8125 16.28125 -5 17.15625 -5.375 C 18.03125 -5.757812 18.929688 -6.375 19.859375 -7.21875 L 23.671875 -3.84375 C 22.554688 -2.476562 21.210938 -1.40625 19.640625 -0.625 C 18.066406 0.144531 16.21875 0.53125 14.09375 0.53125 Z M 18.375 -13.5625 C 18.164062 -15.050781 17.640625 -16.253906 16.796875 -17.171875 C 15.953125 -18.085938 14.832031 -18.546875 13.4375 -18.546875 C 12.03125 -18.546875 10.894531 -18.09375 10.03125 -17.1875 C 9.175781 -16.289062 8.617188 -15.082031 8.359375 -13.5625 Z M 18.375 -13.5625 "/></g></g><g style="fill:#f4c430;fill-opacity:1;"><g transform="translate(351.634057, 74.803419)"><path style="stroke:none" d=""/></g></g><g clip-rule="nonzero" clip-path="url(#571c96b4fb)"><path style=" stroke:none;fill-rule:nonzero;fill:#f4c430;fill-opacity:1;" d="M 87.402344 43.042969 C 84.054688 37.222656 76.074219 36.140625 71.230469 40.828125 C 69.273438 42.730469 67.9375 44.070312 67.730469 44.429688 C 66.90625 45.925781 67.007812 50.867188 66.03125 52.308594 C 65.15625 53.597656 64.433594 55.8125 64.332031 58.179688 C 64.332031 58.59375 63.867188 58.953125 63.457031 58.796875 C 60.316406 57.664062 63.351562 52.414062 62.632812 51.589844 C 61.859375 50.714844 60.46875 52.207031 58.410156 54.113281 C 56.351562 56.019531 51.820312 62.402344 50.53125 60.960938 C 48.933594 59.210938 56.8125 53.496094 55.679688 52.207031 C 54.804688 51.230469 48.367188 60.601562 46.566406 58.644531 C 44.816406 56.6875 53.773438 50.664062 53.414062 49.941406 C 53.15625 49.476562 51.046875 50.765625 48.933594 52.566406 C 46.824219 54.371094 45.175781 56.070312 44.144531 54.730469 C 43.117188 53.390625 46.359375 51.230469 47.75 50.148438 C 49.140625 49.066406 52.386719 47.574219 52.230469 46.699219 C 52.128906 45.820312 49.914062 47.007812 48.625 47.933594 C 47.390625 48.859375 45.332031 51.175781 44.507812 49.890625 C 43.683594 48.601562 48.214844 45.820312 51.097656 43.554688 C 54.03125 41.289062 59.335938 38.613281 60.933594 38.355469 C 61.550781 38.253906 65.207031 34.648438 69.585938 30.167969 C 70.613281 29.136719 70.253906 27.386719 68.914062 26.820312 C 63.816406 24.65625 58.152344 23.578125 52.179688 23.832031 C 32.300781 24.605469 16.132812 40.828125 15.359375 60.808594 C 15 69.613281 17.625 77.800781 22.261719 84.441406 C 26.175781 90.003906 34.308594 90.519531 38.6875 85.265625 C 38.84375 85.113281 38.894531 84.957031 38.945312 84.90625 C 40.078125 82.898438 39.921875 76.203125 41.210938 74.296875 C 42.394531 72.546875 43.375 69.5625 43.476562 66.367188 C 43.476562 65.800781 44.09375 65.390625 44.609375 65.597656 C 48.832031 67.140625 44.765625 74.246094 45.691406 75.328125 C 46.71875 76.460938 48.625 74.453125 51.40625 71.929688 C 54.1875 69.355469 60.316406 60.753906 62.066406 62.660156 C 64.230469 64.976562 53.570312 72.703125 55.113281 74.503906 C 56.296875 75.84375 65 63.175781 67.371094 65.800781 C 69.738281 68.429688 57.585938 76.5625 58.152344 77.59375 C 58.511719 78.261719 61.394531 76.460938 64.230469 74.039062 C 67.0625 71.621094 69.273438 69.355469 70.664062 71.15625 C 72.054688 72.960938 67.679688 75.894531 65.824219 77.386719 C 63.972656 78.828125 59.59375 80.890625 59.75 82.023438 C 59.902344 83.207031 62.890625 81.558594 64.589844 80.324219 C 66.289062 79.085938 69.019531 75.945312 70.152344 77.695312 C 71.285156 79.449219 65.15625 83.207031 61.242188 86.246094 C 57.328125 89.285156 50.121094 92.886719 48.007812 93.25 C 47.597656 93.300781 46.152344 94.535156 44.09375 96.542969 C 42.910156 97.675781 43.476562 99.683594 45.074219 100.097656 C 48.730469 100.972656 52.640625 101.28125 56.609375 101.023438 C 76.175781 99.632812 91.726562 83.515625 92.449219 63.894531 C 92.808594 56.222656 90.902344 49.117188 87.402344 43.042969 Z M 87.402344 43.042969 "/></g><g style="fill:#f4c430;fill-opacity:1;"><g transform="translate(185.964987, 119.389102)"><path style="stroke:none" d="M 3.234375 -20.4375 L 4.765625 -20.4375 L 4.765625 0 L 3.234375 0 Z M 3.234375 -20.4375 "/></g></g><g style="fill:#f4c430;fill-opacity:1;"><g transform="translate(198.43329, 119.389102)"><path style="stroke:none" d="M 2.71875 -14.890625 L 4.140625 -14.890625 L 4.140625 -12.125 C 4.648438 -13 5.332031 -13.738281 6.1875 -14.34375 C 7.039062 -14.945312 8.148438 -15.25 9.515625 -15.25 C 10.453125 -15.25 11.289062 -15.097656 12.03125 -14.796875 C 12.769531 -14.492188 13.394531 -14.066406 13.90625 -13.515625 C 14.425781 -12.972656 14.816406 -12.328125 15.078125 -11.578125 C 15.347656 -10.828125 15.484375 -10.003906 15.484375 -9.109375 L 15.484375 0 L 14.046875 0 L 14.046875 -8.84375 C 14.046875 -10.382812 13.632812 -11.617188 12.8125 -12.546875 C 12 -13.472656 10.832031 -13.9375 9.3125 -13.9375 C 8.570312 -13.9375 7.890625 -13.800781 7.265625 -13.53125 C 6.648438 -13.269531 6.109375 -12.90625 5.640625 -12.4375 C 5.171875 -11.96875 4.800781 -11.40625 4.53125 -10.75 C 4.269531 -10.101562 4.140625 -9.390625 4.140625 -8.609375 L 4.140625 0 L 2.71875 0 Z M 2.71875 -14.890625 "/></g></g><g style="fill:#f4c430;fill-opacity:1;"><g transform="translate(220.798973, 119.389102)"><path style="stroke:none" d="M 2.75 -20.734375 L 4.53125 -20.734375 L 4.53125 -18.78125 L 2.75 -18.78125 Z M 2.921875 -14.890625 L 4.34375 -14.890625 L 4.34375 0 L 2.921875 0 Z M 2.921875 -14.890625 "/></g></g><g style="fill:#f4c430;fill-opacity:1;"><g transform="translate(232.537386, 119.389102)"><path style="stroke:none" d="M 7.6875 0.265625 C 7.09375 0.265625 6.539062 0.1875 6.03125 0.03125 C 5.53125 -0.125 5.085938 -0.367188 4.703125 -0.703125 C 4.328125 -1.046875 4.03125 -1.476562 3.8125 -2 C 3.601562 -2.519531 3.5 -3.128906 3.5 -3.828125 L 3.5 -13.578125 L 1.34375 -13.578125 L 1.34375 -14.890625 L 3.5 -14.890625 L 3.5 -19.65625 L 4.9375 -19.65625 L 4.9375 -14.890625 L 10.15625 -14.890625 L 10.15625 -13.578125 L 4.9375 -13.578125 L 4.9375 -3.96875 C 4.9375 -2.894531 5.210938 -2.144531 5.765625 -1.71875 C 6.316406 -1.289062 7.03125 -1.078125 7.90625 -1.078125 C 8.28125 -1.078125 8.632812 -1.113281 8.96875 -1.1875 C 9.300781 -1.269531 9.679688 -1.410156 10.109375 -1.609375 L 10.109375 -0.265625 C 9.710938 -0.0859375 9.320312 0.0390625 8.9375 0.125 C 8.5625 0.21875 8.144531 0.265625 7.6875 0.265625 Z M 7.6875 0.265625 "/></g></g><g style="fill:#f4c430;fill-opacity:1;"><g transform="translate(248.684367, 119.389102)"><path style="stroke:none" d="M 2.75 -20.734375 L 4.53125 -20.734375 L 4.53125 -18.78125 L 2.75 -18.78125 Z M 2.921875 -14.890625 L 4.34375 -14.890625 L 4.34375 0 L 2.921875 0 Z M 2.921875 -14.890625 "/></g></g><g style="fill:#f4c430;fill-opacity:1;"><g transform="translate(260.422781, 119.389102)"><path style="stroke:none" d="M 7.25 0.34375 C 6.539062 0.34375 5.84375 0.242188 5.15625 0.046875 C 4.476562 -0.140625 3.867188 -0.425781 3.328125 -0.8125 C 2.785156 -1.207031 2.34375 -1.695312 2 -2.28125 C 1.65625 -2.863281 1.484375 -3.546875 1.484375 -4.328125 L 1.484375 -4.375 C 1.484375 -5.15625 1.644531 -5.847656 1.96875 -6.453125 C 2.289062 -7.054688 2.734375 -7.5625 3.296875 -7.96875 C 3.859375 -8.375 4.539062 -8.6875 5.34375 -8.90625 C 6.144531 -9.125 7.03125 -9.234375 8 -9.234375 C 9.050781 -9.234375 9.957031 -9.171875 10.71875 -9.046875 C 11.476562 -8.929688 12.21875 -8.773438 12.9375 -8.578125 L 12.9375 -9.234375 C 12.9375 -10.742188 12.503906 -11.878906 11.640625 -12.640625 C 10.773438 -13.398438 9.570312 -13.78125 8.03125 -13.78125 C 7.113281 -13.78125 6.273438 -13.664062 5.515625 -13.4375 C 4.753906 -13.21875 4.035156 -12.9375 3.359375 -12.59375 L 2.828125 -13.84375 C 3.648438 -14.226562 4.476562 -14.535156 5.3125 -14.765625 C 6.15625 -15.003906 7.09375 -15.125 8.125 -15.125 C 10.164062 -15.125 11.726562 -14.578125 12.8125 -13.484375 C 13.832031 -12.472656 14.34375 -11.070312 14.34375 -9.28125 L 14.34375 0 L 12.9375 0 L 12.9375 -2.484375 C 12.6875 -2.128906 12.378906 -1.78125 12.015625 -1.4375 C 11.660156 -1.101562 11.25 -0.800781 10.78125 -0.53125 C 10.3125 -0.269531 9.78125 -0.0625 9.1875 0.09375 C 8.59375 0.257812 7.945312 0.34375 7.25 0.34375 Z M 7.328125 -1 C 8.085938 -1 8.804688 -1.109375 9.484375 -1.328125 C 10.171875 -1.554688 10.769531 -1.867188 11.28125 -2.265625 C 11.800781 -2.660156 12.210938 -3.140625 12.515625 -3.703125 C 12.816406 -4.273438 12.96875 -4.898438 12.96875 -5.578125 L 12.96875 -7.265625 C 12.34375 -7.421875 11.609375 -7.570312 10.765625 -7.71875 C 9.929688 -7.863281 8.976562 -7.9375 7.90625 -7.9375 C 6.332031 -7.9375 5.125 -7.617188 4.28125 -6.984375 C 3.4375 -6.359375 3.015625 -5.519531 3.015625 -4.46875 L 3.015625 -4.40625 C 3.015625 -3.863281 3.128906 -3.382812 3.359375 -2.96875 C 3.585938 -2.550781 3.898438 -2.191406 4.296875 -1.890625 C 4.703125 -1.597656 5.164062 -1.375 5.6875 -1.21875 C 6.21875 -1.070312 6.765625 -1 7.328125 -1 Z M 7.328125 -1 "/></g></g><g style="fill:#f4c430;fill-opacity:1;"><g transform="translate(281.503808, 119.389102)"><path style="stroke:none" d="M 7.6875 0.265625 C 7.09375 0.265625 6.539062 0.1875 6.03125 0.03125 C 5.53125 -0.125 5.085938 -0.367188 4.703125 -0.703125 C 4.328125 -1.046875 4.03125 -1.476562 3.8125 -2 C 3.601562 -2.519531 3.5 -3.128906 3.5 -3.828125 L 3.5 -13.578125 L 1.34375 -13.578125 L 1.34375 -14.890625 L 3.5 -14.890625 L 3.5 -19.65625 L 4.9375 -19.65625 L 4.9375 -14.890625 L 10.15625 -14.890625 L 10.15625 -13.578125 L 4.9375 -13.578125 L 4.9375 -3.96875 C 4.9375 -2.894531 5.210938 -2.144531 5.765625 -1.71875 C 6.316406 -1.289062 7.03125 -1.078125 7.90625 -1.078125 C 8.28125 -1.078125 8.632812 -1.113281 8.96875 -1.1875 C 9.300781 -1.269531 9.679688 -1.410156 10.109375 -1.609375 L 10.109375 -0.265625 C 9.710938 -0.0859375 9.320312 0.0390625 8.9375 0.125 C 8.5625 0.21875 8.144531 0.265625 7.6875 0.265625 Z M 7.6875 0.265625 "/></g></g><g style="fill:#f4c430;fill-opacity:1;"><g transform="translate(297.650789, 119.389102)"><path style="stroke:none" d="M 2.75 -20.734375 L 4.53125 -20.734375 L 4.53125 -18.78125 L 2.75 -18.78125 Z M 2.921875 -14.890625 L 4.34375 -14.890625 L 4.34375 0 L 2.921875 0 Z M 2.921875 -14.890625 "/></g></g><g style="fill:#f4c430;fill-opacity:1;"><g transform="translate(309.389203, 119.389102)"><path style="stroke:none" d="M 1.203125 -14.890625 L 2.859375 -14.890625 L 8.5 -1.609375 L 14.1875 -14.890625 L 15.796875 -14.890625 L 9.109375 0.109375 L 7.890625 0.109375 Z M 1.203125 -14.890625 "/></g></g><g style="fill:#f4c430;fill-opacity:1;"><g transform="translate(329.973777, 119.389102)"><path style="stroke:none" d="M 9 0.34375 C 8.019531 0.34375 7.085938 0.160156 6.203125 -0.203125 C 5.316406 -0.578125 4.535156 -1.101562 3.859375 -1.78125 C 3.191406 -2.457031 2.660156 -3.273438 2.265625 -4.234375 C 1.878906 -5.191406 1.6875 -6.253906 1.6875 -7.421875 L 1.6875 -7.46875 C 1.6875 -8.539062 1.867188 -9.550781 2.234375 -10.5 C 2.597656 -11.445312 3.09375 -12.269531 3.71875 -12.96875 C 4.351562 -13.664062 5.097656 -14.21875 5.953125 -14.625 C 6.816406 -15.039062 7.753906 -15.25 8.765625 -15.25 C 9.816406 -15.25 10.757812 -15.046875 11.59375 -14.640625 C 12.425781 -14.242188 13.140625 -13.691406 13.734375 -12.984375 C 14.328125 -12.285156 14.785156 -11.460938 15.109375 -10.515625 C 15.429688 -9.578125 15.59375 -8.554688 15.59375 -7.453125 C 15.59375 -7.316406 15.59375 -7.210938 15.59375 -7.140625 C 15.59375 -7.066406 15.582031 -6.972656 15.5625 -6.859375 L 3.21875 -6.859375 C 3.269531 -5.929688 3.46875 -5.101562 3.8125 -4.375 C 4.164062 -3.65625 4.601562 -3.039062 5.125 -2.53125 C 5.65625 -2.03125 6.253906 -1.648438 6.921875 -1.390625 C 7.597656 -1.128906 8.304688 -1 9.046875 -1 C 10.222656 -1 11.210938 -1.222656 12.015625 -1.671875 C 12.828125 -2.117188 13.539062 -2.671875 14.15625 -3.328125 L 15.15625 -2.453125 C 14.394531 -1.628906 13.53125 -0.957031 12.5625 -0.4375 C 11.601562 0.0820312 10.414062 0.34375 9 0.34375 Z M 14.046875 -8.140625 C 13.984375 -8.898438 13.832031 -9.625 13.59375 -10.3125 C 13.351562 -11.007812 13.015625 -11.625 12.578125 -12.15625 C 12.140625 -12.695312 11.597656 -13.128906 10.953125 -13.453125 C 10.304688 -13.773438 9.554688 -13.9375 8.703125 -13.9375 C 7.960938 -13.9375 7.269531 -13.785156 6.625 -13.484375 C 5.988281 -13.191406 5.429688 -12.785156 4.953125 -12.265625 C 4.472656 -11.753906 4.078125 -11.144531 3.765625 -10.4375 C 3.453125 -9.726562 3.269531 -8.960938 3.21875 -8.140625 Z M 14.046875 -8.140625 "/></g></g></g></svg>